
<svg width="166" height="40" viewBox="0 0 166 40" fill="none" xmlns="http://www.w3.org/2000/svg">
<g id="Logo header" clip-path="url(#clip0_167_52450)">
<path id="Vector" d="M14.79 21.06C15.16 20.825 15.53 20.705 15.655 20.705C15.78 20.585 16.15 20.47 16.52 20.115C17.75 19.175 18.37 17.88 18.37 15.995C18.37 14.465 17.755 13.055 16.645 11.875C16.03 11.17 15.165 10.7 13.935 10.345C12.705 9.99003 11.225 9.75503 9.62 9.75503H0V33.52H10.845C14.295 33.52 16.635 32.815 17.995 31.285C19.225 29.99 19.72 28.58 19.72 26.93C19.72 25.4 19.225 24.225 18.365 23.165C17.625 21.99 16.395 21.4 14.79 21.045V21.06ZM5.545 14.12H8.255C9.855 14.12 11.09 14.24 11.705 14.59C12.445 14.945 12.69 15.65 12.69 16.71C12.69 17.77 12.32 18.475 11.58 18.71C10.84 19.065 9.73 19.18 8.13 19.18H5.54V14.12H5.545ZM12.94 28.355C12.2 28.71 10.97 28.945 9.365 28.945H5.545V23.415H8.87C10.72 23.415 12.075 23.535 12.935 23.885C13.8 24.24 14.165 24.945 14.165 26.005C14.165 27.3 13.67 28.005 12.935 28.36L12.94 28.355ZM32.905 14.825C29.945 14.825 27.605 15.765 25.635 17.53C23.665 19.415 22.8 21.65 22.8 24.235C22.8 26.82 23.785 29.175 25.635 30.94C27.605 32.705 29.95 33.645 32.905 33.645C35.86 33.645 38.205 32.705 40.175 30.94C42.145 29.175 43.01 26.94 43.01 24.235C43.01 21.53 42.025 19.295 40.175 17.53C38.205 15.765 35.74 14.825 32.905 14.825ZM36.23 27.885C35.365 28.825 34.26 29.295 32.78 29.295C31.425 29.295 30.19 28.825 29.33 27.885C28.465 26.945 27.975 25.765 27.975 24.24C27.975 22.715 28.47 21.535 29.33 20.595C30.195 19.655 31.3 19.185 32.78 19.185C34.135 19.185 35.37 19.655 36.23 20.595C37.095 21.535 37.585 22.715 37.585 24.24C37.585 25.765 37.215 26.945 36.23 27.885ZM55.95 14.825C52.99 14.825 50.65 15.765 48.68 17.53C46.71 19.415 45.845 21.65 45.845 24.235C45.845 26.82 46.83 29.175 48.68 30.94C50.65 32.705 52.995 33.645 55.95 33.645C58.905 33.645 61.25 32.705 63.22 30.94C65.19 29.175 66.055 26.94 66.055 24.235C66.055 21.53 65.07 19.295 63.22 17.53C61.25 15.765 58.905 14.825 55.95 14.825ZM59.4 27.885C58.535 28.825 57.43 29.295 55.95 29.295C54.595 29.295 53.36 28.825 52.5 27.885C51.635 26.945 51.145 25.765 51.145 24.24C51.145 22.715 51.64 21.535 52.5 20.595C53.365 19.655 54.47 19.185 55.95 19.185C57.305 19.185 58.54 19.655 59.4 20.595C60.265 21.535 60.755 22.715 60.755 24.24C60.755 25.765 60.26 26.945 59.4 27.885ZM82.325 23.885C81.585 23.53 80.97 23.18 80.475 22.945C79.98 22.71 79.12 22.475 77.885 22.12C76.655 21.765 75.79 21.415 75.295 21.18C74.8 20.945 74.555 20.59 74.555 20.005C74.555 19.18 75.42 18.71 77.02 18.71C78.62 18.71 80.345 19.3 81.95 20.355L83.92 16.945C81.7 15.535 79.36 14.825 77.14 14.825C74.92 14.825 73.075 15.415 71.595 16.47C70.115 17.53 69.5 18.94 69.5 20.59C69.5 22.24 70.24 23.53 71.72 24.475C72.46 24.945 73.075 25.18 73.57 25.415C74.185 25.65 74.925 25.885 76.035 26.24C77.145 26.595 77.885 26.945 78.5 27.3C79.115 27.655 79.365 28.005 79.365 28.475C79.365 28.945 79.12 29.3 78.75 29.535C78.38 29.77 77.765 29.89 77.15 29.89C74.93 29.89 72.715 29.185 70.74 27.655L68.4 30.83C69.63 31.77 70.99 32.475 72.59 32.95C74.19 33.425 75.67 33.655 77.025 33.655C79.12 33.655 80.97 33.065 82.325 32.01C83.68 30.95 84.42 29.42 84.42 27.655C84.42 25.89 83.68 24.595 82.325 23.89V23.885ZM96.495 29.18C96 29.18 95.51 28.945 95.14 28.59C94.77 28.235 94.525 27.65 94.525 26.945V18.71H99.21V15.065H94.525V9.65503H89.1V15.185H86.88V18.83H89.1V27.3C89.1 29.3 89.715 30.83 90.95 32.005C92.18 33.18 93.785 33.77 95.635 33.77C97.485 33.77 99.21 33.065 100.935 31.65L98.965 28.12C98.35 28.825 97.485 29.18 96.5 29.18H96.495Z" fill="#3683FF"/>
<path id="Vector_2" d="M119.545 22.705C119.545 24.585 119.05 26.115 118.19 27.175C117.325 28.235 116.095 28.82 114.495 28.82C112.895 28.82 111.66 28.23 110.8 27.175C109.815 26.115 109.445 24.585 109.445 22.705V9.64502H103.9V22.94C103.9 26.35 104.885 29.06 106.86 30.82C108.83 32.7 111.42 33.645 114.5 33.645C117.58 33.645 120.17 32.705 122.14 30.82C124.11 28.94 125.1 26.35 125.1 22.94V9.64502H119.555V22.705H119.545ZM141.48 14.825C139.26 14.825 137.29 15.65 135.69 17.18V15.18H130.39V40.005H135.69V30.945C137.17 32.71 139.015 33.65 141.36 33.65C143.705 33.65 145.795 32.71 147.52 30.945C149.245 29.18 150.11 26.825 150.11 24.12C150.11 21.415 149.245 19.18 147.52 17.415C145.67 15.65 143.7 14.825 141.48 14.825ZM143.33 27.885C142.345 28.825 141.36 29.295 140.125 29.295C138.89 29.295 137.785 28.825 136.92 27.885C136.055 26.945 135.565 25.765 135.565 24.24C135.565 22.715 136.06 21.535 136.92 20.595C137.785 19.655 138.89 19.065 140.125 19.065C141.36 19.065 142.465 19.535 143.33 20.595C144.195 21.535 144.685 22.83 144.685 24.24C144.685 25.77 144.19 26.945 143.33 27.885Z" fill="#1453BC"/>
<path id="Vector_3" d="M153.185 4.355V23.765L165.88 0L153.185 4.355Z" fill="#1453BC"/>
<path id="Vector_4" d="M151.34 14.8251V5.06006L139.63 9.06006L151.34 14.8251Z" fill="#1453BC"/>
</g>
<defs>
<clipPath id="clip0_167_52450">
<rect width="165.88" height="40" fill="white"/>
</clipPath>
</defs>
</svg>
